<?xml version="1.0" encoding="UTF-8" standalone="no"?><svg xmlns="http://www.w3.org/2000/svg" xmlns:xlink="http://www.w3.org/1999/xlink" fill="#000000" height="1336.4" preserveAspectRatio="xMidYMid meet" version="1" viewBox="331.8 331.8 1336.4 1336.4" width="1336.4" zoomAndPan="magnify"><g id="change1_1"><path d="M 1491.277344 1313.460938 L 1255.34375 1313.460938 C 1273.398438 1230.546875 1284.113281 1137.597656 1286.546875 1042.640625 L 1581.382812 1042.640625 C 1574.351562 1138.917969 1543.371094 1232.097656 1491.277344 1313.460938 Z M 1161.195312 1560.328125 C 1179.976562 1531.53125 1197.199219 1497.21875 1212.582031 1457.859375 C 1219.890625 1439.179688 1226.769531 1419.328125 1233.105469 1398.738281 L 1424.898438 1398.738281 C 1352.457031 1476.230469 1262.355469 1531.417969 1161.195312 1560.328125 Z M 1133.144531 1426.820312 C 1113.269531 1477.667969 1089.675781 1518.929688 1064.910156 1546.148438 C 1042.699219 1570.558594 1020.863281 1582.929688 1000 1582.929688 C 979.144531 1582.929688 957.304688 1570.558594 935.089844 1546.148438 C 910.328125 1518.929688 886.734375 1477.667969 866.859375 1426.820312 C 863.332031 1417.789062 859.886719 1408.398438 856.566406 1398.738281 L 1143.429688 1398.738281 C 1140.113281 1408.398438 1136.675781 1417.789062 1133.144531 1426.820312 Z M 575.101562 1398.738281 L 766.898438 1398.738281 C 773.226562 1419.339844 780.113281 1439.179688 787.417969 1457.859375 C 802.800781 1497.21875 820.015625 1531.53125 838.816406 1560.328125 C 737.648438 1531.417969 647.539062 1476.230469 575.101562 1398.738281 Z M 508.714844 1313.460938 C 456.628906 1232.097656 425.648438 1138.910156 418.621094 1042.640625 L 713.449219 1042.640625 C 715.886719 1137.597656 726.601562 1230.546875 744.65625 1313.460938 Z M 508.714844 686.546875 L 744.65625 686.546875 C 726.601562 769.445312 715.886719 862.394531 713.449219 957.351562 L 418.621094 957.351562 C 425.648438 861.085938 456.628906 767.898438 508.714844 686.546875 Z M 838.816406 439.667969 C 820.015625 468.46875 802.800781 502.773438 787.417969 542.136719 C 780.113281 560.8125 773.226562 580.660156 766.898438 601.261719 L 575.101562 601.261719 C 647.542969 523.765625 737.652344 468.570312 838.816406 439.667969 Z M 866.863281 573.175781 C 886.734375 522.324219 910.328125 481.066406 935.089844 453.855469 C 957.304688 429.445312 979.144531 417.0625 1000 417.0625 C 1020.863281 417.0625 1042.699219 429.445312 1064.910156 453.855469 C 1089.675781 481.066406 1113.269531 522.324219 1133.144531 573.175781 C 1136.675781 582.214844 1140.125 591.609375 1143.429688 601.261719 L 856.566406 601.261719 C 859.886719 591.601562 863.332031 582.203125 866.863281 573.175781 Z M 1201.242188 1042.640625 C 1198.65625 1138.871094 1187.191406 1231.949219 1167.898438 1313.460938 L 832.09375 1313.460938 C 812.8125 1231.949219 801.355469 1138.871094 798.761719 1042.640625 Z M 798.761719 957.351562 C 801.355469 861.125 812.8125 768.054688 832.09375 686.546875 L 1167.898438 686.546875 C 1187.191406 768.054688 1198.65625 861.125 1201.242188 957.351562 Z M 1424.898438 601.261719 L 1233.105469 601.261719 C 1226.769531 580.660156 1219.890625 560.8125 1212.582031 542.136719 C 1197.199219 502.773438 1179.976562 468.46875 1161.195312 439.667969 C 1262.355469 468.570312 1352.457031 523.765625 1424.898438 601.261719 Z M 1491.277344 686.546875 C 1543.371094 767.898438 1574.351562 861.085938 1581.382812 957.351562 L 1286.546875 957.351562 C 1284.113281 862.394531 1273.398438 769.445312 1255.34375 686.546875 Z M 1568.171875 647.859375 C 1560.636719 635.730469 1552.53125 623.601562 1544.089844 611.832031 C 1522.699219 581.96875 1498.605469 553.597656 1472.5 527.5 C 1346.296875 401.289062 1178.503906 331.777344 1000 331.777344 C 821.5 331.777344 653.699219 401.289062 527.511719 527.492188 C 501.386719 553.597656 477.300781 581.96875 455.925781 611.8125 C 447.460938 623.613281 439.355469 635.742188 431.847656 647.839844 C 366.382812 752.988281 331.777344 874.769531 331.777344 1000 C 331.777344 1125.230469 366.378906 1247 431.824219 1352.121094 C 439.347656 1364.25 447.453125 1376.378906 455.910156 1388.167969 C 477.300781 1418.03125 501.386719 1446.398438 527.503906 1472.5 C 653.699219 1598.710938 821.5 1668.21875 1000 1668.21875 C 1178.503906 1668.21875 1346.296875 1598.710938 1472.488281 1472.5 C 1498.605469 1446.410156 1522.699219 1418.03125 1544.070312 1388.1875 C 1552.542969 1376.390625 1560.648438 1364.257812 1568.152344 1352.160156 C 1633.621094 1247 1668.222656 1125.230469 1668.222656 1000 C 1668.222656 874.777344 1633.621094 753.007812 1568.171875 647.859375" fill="#ffffff"/></g></svg>